<?xml version="1.0" encoding="UTF-8"?>
<svg id="Layer_2" data-name="Layer 2" xmlns="http://www.w3.org/2000/svg" viewBox="0 0 430.43 358.69">
  <g id="pix">
    <g>
      <rect x="310.87" y="0" width="23.91" height="23.91"/>
      <rect x="286.95" y="0" width="23.91" height="23.91"/>
      <rect x="263.04" y="0" width="23.92" height="23.91"/>
      <rect x="239.13" y="0" width="23.91" height="23.91"/>
      <rect x="215.22" y="0" width="23.91" height="23.91"/>
      <rect x="191.3" y="0" width="23.91" height="23.91"/>
      <rect x="167.39" y="0" width="23.92" height="23.91"/>
      <rect x="143.48" y="0" width="23.91" height="23.91"/>
      <rect x="119.57" y="0" width="23.91" height="23.91"/>
      <rect x="95.65" width="23.92" height="23.91"/>
      <rect x="382.6" y="23.91" width="23.91" height="23.91"/>
      <rect x="358.69" y="23.91" width="23.91" height="23.91" fill="#a8a8a8"/>
      <rect x="334.78" y="23.91" width="23.92" height="23.91"/>
      <rect x="310.87" y="23.91" width="23.91" height="23.91" fill="#fff"/>
      <rect x="286.95" y="23.91" width="23.91" height="23.91" fill="#fff"/>
      <rect x="263.04" y="23.91" width="23.92" height="23.91" fill="#fff"/>
      <rect x="239.13" y="23.91" width="23.91" height="23.91" fill="#fff"/>
      <rect x="215.22" y="23.91" width="23.91" height="23.91" fill="#fff"/>
      <rect x="191.3" y="23.91" width="23.91" height="23.91" fill="#fff"/>
      <rect x="167.39" y="23.91" width="23.92" height="23.91" fill="#fff"/>
      <rect x="143.48" y="23.91" width="23.91" height="23.91" fill="#fff"/>
      <rect x="119.57" y="23.91" width="23.91" height="23.91" fill="#fff"/>
      <rect x="95.65" y="23.91" width="23.92" height="23.91" fill="#fff"/>
      <rect x="71.74" y="23.91" width="23.91" height="23.91"/>
      <rect x="47.83" y="23.91" width="23.91" height="23.91"/>
      <rect x="23.91" y="23.91" width="23.92" height="23.91"/>
      <rect x="406.52" y="47.82" width="23.92" height="23.92"/>
      <rect x="382.6" y="47.82" width="23.91" height="23.92" fill="#fff"/>
      <rect x="358.69" y="47.82" width="23.91" height="23.92" fill="#fff"/>
      <rect x="334.78" y="47.82" width="23.92" height="23.92" fill="#a8a8a8"/>
      <rect x="310.87" y="47.82" width="23.91" height="23.92" fill="#fff"/>
      <rect x="286.95" y="47.82" width="23.91" height="23.92" fill="#fff"/>
      <rect x="263.04" y="47.82" width="23.92" height="23.92" fill="#fff"/>
      <rect x="239.13" y="47.82" width="23.91" height="23.92" fill="#fff"/>
      <rect x="215.22" y="47.82" width="23.91" height="23.92" fill="#fff"/>
      <rect x="191.3" y="47.82" width="23.91" height="23.92" fill="#fff"/>
      <rect x="167.39" y="47.82" width="23.92" height="23.92" fill="#fff"/>
      <rect x="143.48" y="47.82" width="23.91" height="23.92" fill="#fff"/>
      <rect x="119.57" y="47.82" width="23.91" height="23.92" fill="#fff"/>
      <rect x="95.65" y="47.82" width="23.92" height="23.92" fill="#fff"/>
      <rect x="71.74" y="47.82" width="23.91" height="23.92" fill="#d2a679"/>
      <rect x="47.83" y="47.82" width="23.91" height="23.92" fill="#edc9af"/>
      <rect x="23.91" y="47.82" width="23.92" height="23.92" fill="#fce8d5"/>
      <rect y="47.82" width="23.91" height="23.92"/>
      <rect x="406.52" y="71.74" width="23.92" height="23.91"/>
      <rect x="382.6" y="71.74" width="23.91" height="23.91" fill="#fff"/>
      <rect x="358.69" y="71.74" width="23.91" height="23.91" fill="#fff"/>
      <rect x="334.78" y="71.74" width="23.92" height="23.91" fill="#a8a8a8"/>
      <rect x="310.87" y="71.74" width="23.91" height="23.91" fill="#fff"/>
      <rect x="286.95" y="71.74" width="23.91" height="23.91" fill="#fff"/>
      <rect x="263.04" y="71.74" width="23.92" height="23.91" fill="#ccc"/>
      <rect x="239.13" y="71.74" width="23.91" height="23.91" fill="#a8a8a8"/>
      <rect x="215.22" y="71.74" width="23.91" height="23.91" fill="#ccc"/>
      <rect x="191.3" y="71.74" width="23.91" height="23.91" fill="#fff"/>
      <rect x="167.39" y="71.74" width="23.92" height="23.91" fill="#fff"/>
      <rect x="143.48" y="71.74" width="23.91" height="23.91" fill="#fff"/>
      <rect x="119.57" y="71.74" width="23.91" height="23.91" fill="#fff"/>
      <rect x="95.65" y="71.74" width="23.92" height="23.91" fill="#fff"/>
      <rect x="71.74" y="71.74" width="23.91" height="23.91" fill="#d2a679"/>
      <rect x="47.83" y="71.74" width="23.91" height="23.91" fill="#edc9af"/>
      <rect x="23.91" y="71.74" width="23.92" height="23.91" fill="#fce8d5"/>
      <rect y="71.74" width="23.91" height="23.91"/>
      <rect x="382.6" y="95.65" width="23.91" height="23.91"/>
      <rect x="358.69" y="95.65" width="23.91" height="23.91" fill="#a8a8a8"/>
      <rect x="334.78" y="95.65" width="23.92" height="23.91" fill="#a8a8a8"/>
      <rect x="310.87" y="95.65" width="23.91" height="23.91" fill="#fff"/>
      <rect x="286.95" y="95.65" width="23.91" height="23.91" fill="#fff"/>
      <rect x="263.04" y="95.65" width="23.92" height="23.91" fill="#ccc"/>
      <rect x="239.13" y="95.65" width="23.91" height="23.91" fill="#a8a8a8"/>
      <rect x="215.22" y="95.65" width="23.91" height="23.91" fill="#ccc"/>
      <rect x="191.3" y="95.65" width="23.91" height="23.91" fill="#fff"/>
      <rect x="167.39" y="95.65" width="23.92" height="23.91" fill="#fff"/>
      <rect x="143.48" y="95.65" width="23.91" height="23.91" fill="#fff"/>
      <rect x="119.57" y="95.65" width="23.91" height="23.91" fill="#fff"/>
      <rect x="95.65" y="95.65" width="23.92" height="23.91" fill="#fff"/>
      <rect x="71.74" y="95.65" width="23.91" height="23.91" fill="#d2a679"/>
      <rect x="47.83" y="95.65" width="23.91" height="23.91" fill="#edc9af"/>
      <rect x="23.91" y="95.65" width="23.92" height="23.91" fill="#fce8d5"/>
      <rect y="95.65" width="23.91" height="23.91"/>
      <rect x="406.52" y="119.56" width="23.92" height="23.92"/>
      <rect x="382.6" y="119.56" width="23.91" height="23.92" fill="#fff"/>
      <rect x="358.69" y="119.56" width="23.91" height="23.92" fill="#fff"/>
      <rect x="334.78" y="119.56" width="23.92" height="23.92" fill="#a8a8a8"/>
      <rect x="310.87" y="119.56" width="23.91" height="23.92" fill="#fff"/>
      <rect x="286.95" y="119.56" width="23.91" height="23.92" fill="#fff"/>
      <rect x="263.04" y="119.56" width="23.92" height="23.92" fill="#ccc"/>
      <rect x="239.13" y="119.56" width="23.91" height="23.92" fill="#a8a8a8"/>
      <rect x="215.22" y="119.56" width="23.91" height="23.92" fill="#ccc"/>
      <rect x="191.3" y="119.56" width="23.91" height="23.92" fill="#fff"/>
      <rect x="167.39" y="119.56" width="23.92" height="23.92" fill="#fff"/>
      <rect x="143.48" y="119.56" width="23.91" height="23.92" fill="#fff"/>
      <rect x="119.57" y="119.56" width="23.91" height="23.92" fill="#fff"/>
      <rect x="95.65" y="119.56" width="23.92" height="23.92" fill="#fff"/>
      <rect x="71.74" y="119.56" width="23.91" height="23.92" fill="#d2a679"/>
      <rect x="47.83" y="119.56" width="23.91" height="23.92" fill="#edc9af"/>
      <rect x="23.91" y="119.56" width="23.92" height="23.92" fill="#fce8d5"/>
      <rect y="119.56" width="23.91" height="23.92"/>
      <rect x="406.52" y="143.48" width="23.92" height="23.91"/>
      <rect x="382.6" y="143.48" width="23.91" height="23.91" fill="#fff"/>
      <rect x="358.69" y="143.48" width="23.91" height="23.91" fill="#fff"/>
      <rect x="334.78" y="143.48" width="23.92" height="23.91" fill="#a8a8a8"/>
      <rect x="310.87" y="143.48" width="23.91" height="23.91" fill="#fff"/>
      <rect x="286.95" y="143.48" width="23.91" height="23.91" fill="#fff"/>
      <rect x="263.04" y="143.48" width="23.92" height="23.91" fill="#ccc"/>
      <rect x="239.13" y="143.48" width="23.91" height="23.91" fill="#a8a8a8"/>
      <rect x="215.22" y="143.48" width="23.91" height="23.91" fill="#ccc"/>
      <rect x="191.3" y="143.48" width="23.91" height="23.91" fill="#fff"/>
      <rect x="167.39" y="143.48" width="23.92" height="23.91" fill="#fff"/>
      <rect x="143.48" y="143.48" width="23.91" height="23.91" fill="#fff"/>
      <rect x="119.57" y="143.48" width="23.91" height="23.91" fill="#fff"/>
      <rect x="95.65" y="143.48" width="23.92" height="23.91" fill="#fff"/>
      <rect x="71.74" y="143.48" width="23.91" height="23.91" fill="#d2a679"/>
      <rect x="47.83" y="143.48" width="23.91" height="23.91" fill="#edc9af"/>
      <rect x="23.91" y="143.48" width="23.92" height="23.91" fill="#fce8d5"/>
      <rect y="143.48" width="23.91" height="23.91"/>
      <rect x="406.52" y="167.39" width="23.92" height="23.91"/>
      <rect x="382.6" y="167.39" width="23.91" height="23.91" fill="#fff"/>
      <rect x="358.69" y="167.39" width="23.91" height="23.91" fill="#fff"/>
      <rect x="334.78" y="167.39" width="23.92" height="23.91" fill="#a8a8a8"/>
      <rect x="310.87" y="167.39" width="23.91" height="23.91" fill="#fff"/>
      <rect x="286.95" y="167.39" width="23.91" height="23.91" fill="#fff"/>
      <rect x="263.04" y="167.39" width="23.92" height="23.91" fill="#ccc"/>
      <rect x="239.13" y="167.39" width="23.91" height="23.91" fill="#a8a8a8"/>
      <rect x="215.22" y="167.39" width="23.91" height="23.91" fill="#ccc"/>
      <rect x="191.3" y="167.39" width="23.91" height="23.91" fill="#fff"/>
      <rect x="167.39" y="167.39" width="23.92" height="23.91" fill="#fff"/>
      <rect x="143.48" y="167.39" width="23.91" height="23.91" fill="#fff"/>
      <rect x="119.57" y="167.39" width="23.91" height="23.91" fill="#fff"/>
      <rect x="95.65" y="167.39" width="23.92" height="23.91" fill="#fff"/>
      <rect x="71.74" y="167.39" width="23.91" height="23.91" fill="#d2a679"/>
      <rect x="47.83" y="167.39" width="23.91" height="23.91" fill="#edc9af"/>
      <rect x="23.91" y="167.39" width="23.92" height="23.91" fill="#fce8d5"/>
      <rect y="167.39" width="23.91" height="23.91"/>
      <rect x="382.6" y="191.3" width="23.91" height="23.91"/>
      <rect x="358.69" y="191.3" width="23.91" height="23.91" fill="#a8a8a8"/>
      <rect x="334.78" y="191.3" width="23.92" height="23.91" fill="#a8a8a8"/>
      <rect x="310.87" y="191.3" width="23.91" height="23.91" fill="#fff"/>
      <rect x="286.95" y="191.3" width="23.91" height="23.91" fill="#fff"/>
      <rect x="263.04" y="191.3" width="23.92" height="23.91" fill="#ccc"/>
      <rect x="239.13" y="191.3" width="23.91" height="23.91" fill="#a8a8a8"/>
      <rect x="215.22" y="191.3" width="23.91" height="23.91" fill="#ccc"/>
      <rect x="191.3" y="191.3" width="23.91" height="23.91" fill="#fff"/>
      <rect x="167.39" y="191.3" width="23.92" height="23.91" fill="#fff"/>
      <rect x="143.48" y="191.3" width="23.91" height="23.91" fill="#fff"/>
      <rect x="119.57" y="191.3" width="23.91" height="23.91" fill="#fff"/>
      <rect x="95.65" y="191.3" width="23.92" height="23.91" fill="#fff"/>
      <rect x="71.74" y="191.3" width="23.91" height="23.91" fill="#d2a679"/>
      <rect x="47.83" y="191.3" width="23.91" height="23.91" fill="#edc9af"/>
      <rect x="23.91" y="191.3" width="23.92" height="23.91" fill="#fce8d5"/>
      <rect y="191.3" width="23.91" height="23.91"/>
      <rect x="406.52" y="215.21" width="23.92" height="23.92"/>
      <rect x="382.6" y="215.21" width="23.91" height="23.92" fill="#fff"/>
      <rect x="358.69" y="215.21" width="23.91" height="23.92" fill="#fff"/>
      <rect x="334.78" y="215.21" width="23.92" height="23.92" fill="#ccc"/>
      <rect x="310.87" y="215.21" width="23.91" height="23.92" fill="#a8a8a8"/>
      <rect x="286.95" y="215.21" width="23.91" height="23.92" fill="#a8a8a8"/>
      <rect x="263.04" y="215.21" width="23.92" height="23.92" fill="#a8a8a8"/>
      <rect x="239.13" y="215.21" width="23.91" height="23.92" fill="#ccc"/>
      <rect x="215.22" y="215.21" width="23.91" height="23.92" fill="#fff"/>
      <rect x="191.3" y="215.21" width="23.91" height="23.92" fill="#fff"/>
      <rect x="167.39" y="215.21" width="23.92" height="23.92" fill="#fff"/>
      <rect x="143.48" y="215.21" width="23.91" height="23.92" fill="#fff"/>
      <rect x="119.57" y="215.21" width="23.91" height="23.92" fill="#fff"/>
      <rect x="95.65" y="215.21" width="23.92" height="23.92" fill="#fff"/>
      <rect x="71.74" y="215.21" width="23.91" height="23.92" fill="#d2a679"/>
      <rect x="47.83" y="215.21" width="23.91" height="23.92" fill="#edc9af"/>
      <rect x="23.91" y="215.21" width="23.92" height="23.92" fill="#fce8d5"/>
      <rect y="215.21" width="23.91" height="23.92"/>
      <rect x="406.52" y="239.13" width="23.92" height="23.91"/>
      <rect x="382.6" y="239.13" width="23.91" height="23.91" fill="#fff"/>
      <rect x="358.69" y="239.13" width="23.91" height="23.91" fill="#fff"/>
      <rect x="334.78" y="239.13" width="23.92" height="23.91" fill="#fff"/>
      <rect x="310.87" y="239.13" width="23.91" height="23.91" fill="#ccc"/>
      <rect x="286.95" y="239.13" width="23.91" height="23.91" fill="#ccc"/>
      <rect x="263.04" y="239.13" width="23.92" height="23.91" fill="#a8a8a8"/>
      <rect x="239.13" y="239.13" width="23.91" height="23.91" fill="#ccc"/>
      <rect x="215.22" y="239.13" width="23.91" height="23.91" fill="#fff"/>
      <rect x="191.3" y="239.13" width="23.91" height="23.91" fill="#fff"/>
      <rect x="167.39" y="239.13" width="23.92" height="23.91" fill="#fff"/>
      <rect x="143.48" y="239.13" width="23.91" height="23.91" fill="#fff"/>
      <rect x="119.57" y="239.13" width="23.91" height="23.91" fill="#fff"/>
      <rect x="95.65" y="239.13" width="23.92" height="23.91" fill="#fff"/>
      <rect x="71.74" y="239.13" width="23.91" height="23.91" fill="#d2a679"/>
      <rect x="47.83" y="239.13" width="23.91" height="23.91" fill="#edc9af"/>
      <rect x="23.91" y="239.13" width="23.92" height="23.91" fill="#fce8d5"/>
      <rect y="239.13" width="23.91" height="23.91"/>
      <rect x="382.6" y="263.04" width="23.91" height="23.91"/>
      <rect x="358.69" y="263.04" width="23.91" height="23.91" fill="#a8a8a8"/>
      <rect x="334.78" y="263.04" width="23.92" height="23.91" fill="#a8a8a8"/>
      <rect x="310.87" y="263.04" width="23.91" height="23.91" fill="#a8a8a8"/>
      <rect x="286.95" y="263.04" width="23.91" height="23.91" fill="#a8a8a8"/>
      <rect x="263.04" y="263.04" width="23.92" height="23.91" fill="#ccc"/>
      <rect x="239.13" y="263.04" width="23.91" height="23.91" fill="#fff"/>
      <rect x="215.22" y="263.04" width="23.91" height="23.91" fill="#fff"/>
      <rect x="191.3" y="263.04" width="23.91" height="23.91" fill="#fff"/>
      <rect x="167.39" y="263.04" width="23.92" height="23.91" fill="#fff"/>
      <rect x="143.48" y="263.04" width="23.91" height="23.91" fill="#fff"/>
      <rect x="119.57" y="263.04" width="23.91" height="23.91" fill="#fff"/>
      <rect x="95.65" y="263.04" width="23.92" height="23.91" fill="#fff"/>
      <rect x="71.74" y="263.04" width="23.91" height="23.91" fill="#d2a679"/>
      <rect x="47.83" y="263.04" width="23.91" height="23.91" fill="#edc9af"/>
      <rect x="23.91" y="263.04" width="23.92" height="23.91" fill="#fce8d5"/>
      <rect y="263.04" width="23.91" height="23.91"/>
      <rect x="406.52" y="286.95" width="23.92" height="23.92"/>
      <rect x="382.6" y="286.95" width="23.91" height="23.92" fill="#fff"/>
      <rect x="358.69" y="286.95" width="23.91" height="23.92" fill="#fff"/>
      <rect x="334.78" y="286.95" width="23.92" height="23.92" fill="#fff"/>
      <rect x="310.87" y="286.95" width="23.91" height="23.92" fill="#ccc"/>
      <rect x="286.95" y="286.95" width="23.91" height="23.92" fill="#ccc"/>
      <rect x="263.04" y="286.95" width="23.92" height="23.92" fill="#a8a8a8"/>
      <rect x="239.13" y="286.95" width="23.91" height="23.92" fill="#ccc"/>
      <rect x="215.22" y="286.95" width="23.91" height="23.92" fill="#fff"/>
      <rect x="191.3" y="286.95" width="23.91" height="23.92" fill="#fff"/>
      <rect x="167.39" y="286.95" width="23.92" height="23.92" fill="#fff"/>
      <rect x="143.48" y="286.95" width="23.91" height="23.92" fill="#fff"/>
      <rect x="119.57" y="286.95" width="23.91" height="23.92" fill="#fff"/>
      <rect x="95.65" y="286.95" width="23.92" height="23.92" fill="#fff"/>
      <rect x="71.74" y="286.95" width="23.91" height="23.92"/>
      <rect x="47.83" y="286.95" width="23.91" height="23.92"/>
      <rect x="23.91" y="286.95" width="23.92" height="23.92"/>
      <rect x="406.52" y="310.87" width="23.92" height="23.91"/>
      <rect x="382.6" y="310.87" width="23.91" height="23.91" fill="#fff"/>
      <rect x="358.69" y="310.87" width="23.91" height="23.91" fill="#fff"/>
      <rect x="334.78" y="310.87" width="23.92" height="23.91" fill="#fff"/>
      <rect x="310.87" y="310.87" width="23.91" height="23.91" fill="#ccc"/>
      <rect x="286.95" y="310.87" width="23.91" height="23.91" fill="#ccc"/>
      <rect x="263.04" y="310.87" width="23.92" height="23.91" fill="#a8a8a8"/>
      <rect x="239.13" y="310.87" width="23.91" height="23.91" fill="#ccc"/>
      <rect x="215.22" y="310.87" width="23.91" height="23.91" fill="#fff"/>
      <rect x="191.3" y="310.87" width="23.91" height="23.91" fill="#fff"/>
      <rect x="167.39" y="310.87" width="23.92" height="23.91" fill="#fff"/>
      <rect x="143.48" y="310.87" width="23.91" height="23.91"/>
      <rect x="119.57" y="310.87" width="23.91" height="23.91"/>
      <rect x="95.65" y="310.87" width="23.92" height="23.91"/>
      <rect x="382.6" y="334.78" width="23.91" height="23.91"/>
      <rect x="358.69" y="334.78" width="23.91" height="23.91"/>
      <rect x="334.78" y="334.78" width="23.92" height="23.91"/>
      <rect x="310.87" y="334.78" width="23.91" height="23.91"/>
      <rect x="286.95" y="334.78" width="23.91" height="23.91"/>
      <rect x="263.04" y="334.78" width="23.92" height="23.91"/>
      <rect x="239.13" y="334.78" width="23.91" height="23.91"/>
      <rect x="215.22" y="334.78" width="23.91" height="23.91"/>
      <rect x="191.3" y="334.78" width="23.91" height="23.91"/>
      <rect x="167.39" y="334.78" width="23.92" height="23.91"/>
    </g>
  </g>
</svg>